<svg xmlns="http://www.w3.org/2000/svg" xmlns:xlink="http://www.w3.org/1999/xlink" width="11" height="10" viewBox="0 0 11 10" fill="none"><g opacity="1" transform="translate(0.001434326171875 0.002532958984375)  rotate(0 5.027248278795598 4.511209845758938)"><path id="food" fill-rule="evenodd" style="fill:#FF5E5E" transform="translate(0 0)  rotate(0 5.027248278795598 4.511209845758938)" opacity="1" d="M1.55 7.02C0.26 5.39 -0.16 2.89 0.05 2.02C0.55 0.02 1.79 -0.07 3.05 0.02C4.1841 0.100369 4.88758 0.834631 5.02516 0.990858C5.16433 0.834631 5.87483 0.100369 7 0.02C8.26 -0.07 9.5 0.02 10 2.02C10.22 2.89 9.8 5.39 8.5 7.02C7.31559 8.51418 5.38411 8.94586 5.05 9.01082L5.05 9.02C5.05 9.02 5.04142 9.01859 5.025 9.01556C5.00858 9.01859 5 9.02 5 9.02L5 9.01082C4.66589 8.94586 2.73441 8.51418 1.55 7.02Z " /></g></svg>